<mxfile host="app.diagrams.net" modified="2024-05-31T09:37:39.125Z" agent="Mozilla/5.0 (Windows NT 10.0; Win64; x64) AppleWebKit/537.36 (KHTML, like Gecko) Chrome/125.0.0.0 Safari/537.36" etag="tVCORw6IVpyNHVZTtaL8" version="24.2.1" type="github">
  <diagram id="C5RBs43oDa-KdzZeNtuy" name="Page-1">
    <mxGraphModel dx="2625" dy="1393" grid="1" gridSize="10" guides="1" tooltips="1" connect="1" arrows="1" fold="1" page="1" pageScale="1" pageWidth="827" pageHeight="1169" math="0" shadow="0">
      <root>
        <mxCell id="WIyWlLk6GJQsqaUBKTNV-0" />
        <mxCell id="WIyWlLk6GJQsqaUBKTNV-1" parent="WIyWlLk6GJQsqaUBKTNV-0" />
        <mxCell id="sNgtJWW5c5NjqKj0yKrV-7" value="" style="edgeStyle=orthogonalEdgeStyle;rounded=0;orthogonalLoop=1;jettySize=auto;html=1;entryX=0.5;entryY=0;entryDx=0;entryDy=0;endArrow=none;endFill=0;startArrow=open;startFill=0;" parent="WIyWlLk6GJQsqaUBKTNV-1" source="z6xIJ1BXpiOvv1FL2pou-0" target="sNgtJWW5c5NjqKj0yKrV-51" edge="1">
          <mxGeometry relative="1" as="geometry">
            <mxPoint x="690" y="374" as="targetPoint" />
            <Array as="points">
              <mxPoint x="690" y="530" />
            </Array>
          </mxGeometry>
        </mxCell>
        <mxCell id="z6xIJ1BXpiOvv1FL2pou-0" value="{abstract} Sport" style="swimlane;fontStyle=1;align=center;verticalAlign=top;childLayout=stackLayout;horizontal=1;startSize=26;horizontalStack=0;resizeParent=1;resizeParentMax=0;resizeLast=0;collapsible=1;marginBottom=0;whiteSpace=wrap;html=1;" parent="WIyWlLk6GJQsqaUBKTNV-1" vertex="1">
          <mxGeometry x="610" y="222" width="160" height="112" as="geometry" />
        </mxCell>
        <mxCell id="z6xIJ1BXpiOvv1FL2pou-1" value="- coeff : float" style="text;strokeColor=none;fillColor=none;align=left;verticalAlign=top;spacingLeft=4;spacingRight=4;overflow=hidden;rotatable=0;points=[[0,0.5],[1,0.5]];portConstraint=eastwest;whiteSpace=wrap;html=1;" parent="z6xIJ1BXpiOvv1FL2pou-0" vertex="1">
          <mxGeometry y="26" width="160" height="26" as="geometry" />
        </mxCell>
        <mxCell id="z6xIJ1BXpiOvv1FL2pou-2" value="" style="line;strokeWidth=1;fillColor=none;align=left;verticalAlign=middle;spacingTop=-1;spacingLeft=3;spacingRight=3;rotatable=0;labelPosition=right;points=[];portConstraint=eastwest;strokeColor=inherit;" parent="z6xIJ1BXpiOvv1FL2pou-0" vertex="1">
          <mxGeometry y="52" width="160" height="8" as="geometry" />
        </mxCell>
        <mxCell id="z6xIJ1BXpiOvv1FL2pou-3" value="+ Sport(coeff : float) : void" style="text;strokeColor=none;fillColor=none;align=left;verticalAlign=top;spacingLeft=4;spacingRight=4;overflow=hidden;rotatable=0;points=[[0,0.5],[1,0.5]];portConstraint=eastwest;whiteSpace=wrap;html=1;" parent="z6xIJ1BXpiOvv1FL2pou-0" vertex="1">
          <mxGeometry y="60" width="160" height="26" as="geometry" />
        </mxCell>
        <mxCell id="sgGLrwnaThKiIDgjscxB-23" value="+ getCoeff() : float" style="text;strokeColor=none;fillColor=none;align=left;verticalAlign=top;spacingLeft=4;spacingRight=4;overflow=hidden;rotatable=0;points=[[0,0.5],[1,0.5]];portConstraint=eastwest;whiteSpace=wrap;html=1;" parent="z6xIJ1BXpiOvv1FL2pou-0" vertex="1">
          <mxGeometry y="86" width="160" height="26" as="geometry" />
        </mxCell>
        <mxCell id="z6xIJ1BXpiOvv1FL2pou-5" value="Pays" style="swimlane;fontStyle=1;align=center;verticalAlign=top;childLayout=stackLayout;horizontal=1;startSize=26;horizontalStack=0;resizeParent=1;resizeParentMax=0;resizeLast=0;collapsible=1;marginBottom=0;whiteSpace=wrap;html=1;" parent="WIyWlLk6GJQsqaUBKTNV-1" vertex="1">
          <mxGeometry x="70" y="349" width="210" height="140" as="geometry" />
        </mxCell>
        <mxCell id="z6xIJ1BXpiOvv1FL2pou-6" value="- nom : String" style="text;strokeColor=none;fillColor=none;align=left;verticalAlign=top;spacingLeft=4;spacingRight=4;overflow=hidden;rotatable=0;points=[[0,0.5],[1,0.5]];portConstraint=eastwest;whiteSpace=wrap;html=1;" parent="z6xIJ1BXpiOvv1FL2pou-5" vertex="1">
          <mxGeometry y="26" width="210" height="26" as="geometry" />
        </mxCell>
        <mxCell id="z6xIJ1BXpiOvv1FL2pou-7" value="" style="line;strokeWidth=1;fillColor=none;align=left;verticalAlign=middle;spacingTop=-1;spacingLeft=3;spacingRight=3;rotatable=0;labelPosition=right;points=[];portConstraint=eastwest;strokeColor=inherit;" parent="z6xIJ1BXpiOvv1FL2pou-5" vertex="1">
          <mxGeometry y="52" width="210" height="8" as="geometry" />
        </mxCell>
        <mxCell id="z6xIJ1BXpiOvv1FL2pou-8" value="+ Pays(nom : String) : void&lt;div&gt;+ addAthletes(athlete Athlete) : void&lt;/div&gt;&lt;div&gt;+ addEquipe (equipe: Equipe) : void&lt;/div&gt;&lt;div&gt;+ getNom () : String&lt;/div&gt;&lt;div&gt;+ getEquipes() : List&amp;lt;Equipes&amp;gt;&lt;/div&gt;" style="text;strokeColor=none;fillColor=none;align=left;verticalAlign=top;spacingLeft=4;spacingRight=4;overflow=hidden;rotatable=0;points=[[0,0.5],[1,0.5]];portConstraint=eastwest;whiteSpace=wrap;html=1;" parent="z6xIJ1BXpiOvv1FL2pou-5" vertex="1">
          <mxGeometry y="60" width="210" height="80" as="geometry" />
        </mxCell>
        <mxCell id="sNgtJWW5c5NjqKj0yKrV-14" value="" style="edgeStyle=orthogonalEdgeStyle;rounded=0;orthogonalLoop=1;jettySize=auto;html=1;entryX=0;entryY=0.5;entryDx=0;entryDy=0;exitX=0;exitY=0.5;exitDx=0;exitDy=0;endArrow=none;endFill=0;startArrow=none;startFill=0;" parent="WIyWlLk6GJQsqaUBKTNV-1" source="z6xIJ1BXpiOvv1FL2pou-10" target="z6xIJ1BXpiOvv1FL2pou-8" edge="1">
          <mxGeometry relative="1" as="geometry" />
        </mxCell>
        <mxCell id="z6xIJ1BXpiOvv1FL2pou-9" value="Athlètes" style="swimlane;fontStyle=1;align=center;verticalAlign=top;childLayout=stackLayout;horizontal=1;startSize=26;horizontalStack=0;resizeParent=1;resizeParentMax=0;resizeLast=0;collapsible=1;marginBottom=0;whiteSpace=wrap;html=1;" parent="WIyWlLk6GJQsqaUBKTNV-1" vertex="1">
          <mxGeometry x="220" y="1130" width="330" height="450" as="geometry" />
        </mxCell>
        <mxCell id="z6xIJ1BXpiOvv1FL2pou-10" value="- nom : String&lt;div&gt;- prénom : String&lt;br&gt;- sexe : Sexe&lt;br&gt;&lt;/div&gt;&lt;div&gt;- force : Int&lt;/div&gt;&lt;div&gt;- endurance :&amp;nbsp; int &lt;br&gt;&lt;/div&gt;&lt;div&gt;- agilité : int&lt;/div&gt;&lt;div&gt;- medailles : String&lt;br&gt;&lt;/div&gt;&lt;div&gt;- totalMedailles : int&lt;br&gt;&lt;/div&gt;&lt;div&gt;- pays : Pays&lt;/div&gt;&lt;div&gt;- classement : Classement&lt;/div&gt;&lt;div&gt;- equipe : Equipe&amp;nbsp;&lt;/div&gt;&lt;div&gt;- competitionActuelle : Competition&lt;/div&gt;&lt;div&gt;- performanceActuelle : float&lt;/div&gt;" style="text;strokeColor=none;fillColor=none;align=left;verticalAlign=top;spacingLeft=4;spacingRight=4;overflow=hidden;rotatable=0;points=[[0,0.5],[1,0.5]];portConstraint=eastwest;whiteSpace=wrap;html=1;" parent="z6xIJ1BXpiOvv1FL2pou-9" vertex="1">
          <mxGeometry y="26" width="330" height="194" as="geometry" />
        </mxCell>
        <mxCell id="z6xIJ1BXpiOvv1FL2pou-11" value="" style="line;strokeWidth=1;fillColor=none;align=left;verticalAlign=middle;spacingTop=-1;spacingLeft=3;spacingRight=3;rotatable=0;labelPosition=right;points=[];portConstraint=eastwest;strokeColor=inherit;" parent="z6xIJ1BXpiOvv1FL2pou-9" vertex="1">
          <mxGeometry y="220" width="330" height="10" as="geometry" />
        </mxCell>
        <mxCell id="z6xIJ1BXpiOvv1FL2pou-12" value="+ Athletes(nom : String, ...) : void&lt;br&gt;+ getNom() : String&lt;br&gt;+ getPrenom() : String&lt;br&gt;+ getSexe() : String&lt;br&gt;+ getForce() : int&lt;br&gt;+ getEndurance() : int&lt;br&gt;+ getAgilite() : int&lt;div&gt;+ getCompetitionActuelle() : Competition&lt;/div&gt;&lt;div&gt;+ setCompetitionActuelle(competition Competition) : void&lt;/div&gt;&lt;div&gt;+ participer () : float&lt;/div&gt;&lt;div&gt;+ obtenirNom () : String&lt;/div&gt;&lt;div&gt;+ obtenirPays() : Pays&lt;/div&gt;&lt;div&gt;+ obtenirSexe() : Sexe&lt;/div&gt;&lt;div&gt;+ getPerformance () : float&lt;/div&gt;" style="text;strokeColor=none;fillColor=none;align=left;verticalAlign=top;spacingLeft=4;spacingRight=4;overflow=hidden;rotatable=0;points=[[0,0.5],[1,0.5]];portConstraint=eastwest;whiteSpace=wrap;html=1;" parent="z6xIJ1BXpiOvv1FL2pou-9" vertex="1">
          <mxGeometry y="230" width="330" height="220" as="geometry" />
        </mxCell>
        <mxCell id="0WDfXfLjRiSCRCVq6uFS-13" style="edgeStyle=orthogonalEdgeStyle;rounded=0;orthogonalLoop=1;jettySize=auto;html=1;endArrow=none;endFill=0;" edge="1" parent="WIyWlLk6GJQsqaUBKTNV-1" source="sNgtJWW5c5NjqKj0yKrV-0">
          <mxGeometry relative="1" as="geometry">
            <mxPoint x="195" y="490" as="targetPoint" />
          </mxGeometry>
        </mxCell>
        <mxCell id="sNgtJWW5c5NjqKj0yKrV-0" value="Equipes" style="swimlane;fontStyle=1;align=center;verticalAlign=top;childLayout=stackLayout;horizontal=1;startSize=26;horizontalStack=0;resizeParent=1;resizeParentMax=0;resizeLast=0;collapsible=1;marginBottom=0;whiteSpace=wrap;html=1;" parent="WIyWlLk6GJQsqaUBKTNV-1" vertex="1">
          <mxGeometry x="80" y="600" width="230" height="450" as="geometry" />
        </mxCell>
        <mxCell id="sgGLrwnaThKiIDgjscxB-3" value="- nomEquipe : String" style="text;strokeColor=none;fillColor=none;align=left;verticalAlign=top;spacingLeft=4;spacingRight=4;overflow=hidden;rotatable=0;points=[[0,0.5],[1,0.5]];portConstraint=eastwest;whiteSpace=wrap;html=1;" parent="sNgtJWW5c5NjqKj0yKrV-0" vertex="1">
          <mxGeometry y="26" width="230" height="20" as="geometry" />
        </mxCell>
        <mxCell id="sgGLrwnaThKiIDgjscxB-20" value="- tailleMax : int" style="text;strokeColor=none;fillColor=none;align=left;verticalAlign=top;spacingLeft=4;spacingRight=4;overflow=hidden;rotatable=0;points=[[0,0.5],[1,0.5]];portConstraint=eastwest;whiteSpace=wrap;html=1;" parent="sNgtJWW5c5NjqKj0yKrV-0" vertex="1">
          <mxGeometry y="46" width="230" height="20" as="geometry" />
        </mxCell>
        <mxCell id="sgGLrwnaThKiIDgjscxB-47" value="- enRelais : boolean" style="text;strokeColor=none;fillColor=none;align=left;verticalAlign=top;spacingLeft=4;spacingRight=4;overflow=hidden;rotatable=0;points=[[0,0.5],[1,0.5]];portConstraint=eastwest;whiteSpace=wrap;html=1;" parent="sNgtJWW5c5NjqKj0yKrV-0" vertex="1">
          <mxGeometry y="66" width="230" height="18" as="geometry" />
        </mxCell>
        <mxCell id="sgGLrwnaThKiIDgjscxB-49" value="- sport : Sport&lt;div&gt;- Classement : Classement&lt;/div&gt;&lt;div&gt;- pays : Pays&lt;/div&gt;&lt;div&gt;- competitionActuelle : Competition&lt;/div&gt;&lt;div&gt;- performanceActuelle&lt;/div&gt;" style="text;strokeColor=none;fillColor=none;align=left;verticalAlign=top;spacingLeft=4;spacingRight=4;overflow=hidden;rotatable=0;points=[[0,0.5],[1,0.5]];portConstraint=eastwest;whiteSpace=wrap;html=1;" parent="sNgtJWW5c5NjqKj0yKrV-0" vertex="1">
          <mxGeometry y="84" width="230" height="96" as="geometry" />
        </mxCell>
        <mxCell id="sNgtJWW5c5NjqKj0yKrV-2" value="" style="line;strokeWidth=1;fillColor=none;align=left;verticalAlign=middle;spacingTop=-1;spacingLeft=3;spacingRight=3;rotatable=0;labelPosition=right;points=[];portConstraint=eastwest;strokeColor=inherit;" parent="sNgtJWW5c5NjqKj0yKrV-0" vertex="1">
          <mxGeometry y="180" width="230" height="8" as="geometry" />
        </mxCell>
        <mxCell id="sgGLrwnaThKiIDgjscxB-50" value="+ Equipes(nom : String, ...)" style="text;strokeColor=none;fillColor=none;align=left;verticalAlign=top;spacingLeft=4;spacingRight=4;overflow=hidden;rotatable=0;points=[[0,0.5],[1,0.5]];portConstraint=eastwest;whiteSpace=wrap;html=1;" parent="sNgtJWW5c5NjqKj0yKrV-0" vertex="1">
          <mxGeometry y="188" width="230" height="26" as="geometry" />
        </mxCell>
        <mxCell id="sgGLrwnaThKiIDgjscxB-0" value="+ getTailleMax () : int&lt;span style=&quot;white-space: pre;&quot;&gt;&#x9;&lt;/span&gt;&lt;div&gt;&lt;br&gt;&lt;/div&gt;" style="text;strokeColor=none;fillColor=none;align=left;verticalAlign=top;spacingLeft=4;spacingRight=4;overflow=hidden;rotatable=0;points=[[0,0.5],[1,0.5]];portConstraint=eastwest;whiteSpace=wrap;html=1;" parent="sNgtJWW5c5NjqKj0yKrV-0" vertex="1">
          <mxGeometry y="214" width="230" height="26" as="geometry" />
        </mxCell>
        <mxCell id="sgGLrwnaThKiIDgjscxB-1" value="+ setTailleMax (taillemax : int) : void&amp;nbsp;" style="text;strokeColor=none;fillColor=none;align=left;verticalAlign=top;spacingLeft=4;spacingRight=4;overflow=hidden;rotatable=0;points=[[0,0.5],[1,0.5]];portConstraint=eastwest;whiteSpace=wrap;html=1;" parent="sNgtJWW5c5NjqKj0yKrV-0" vertex="1">
          <mxGeometry y="240" width="230" height="26" as="geometry" />
        </mxCell>
        <mxCell id="sNgtJWW5c5NjqKj0yKrV-3" value="+ getTaille () : int&lt;div&gt;+ getSport () : Sport&lt;/div&gt;&lt;div&gt;+ isenRelais () : boolean&lt;/div&gt;&lt;div&gt;+ setEnRelais (enRelais : boolean&lt;span style=&quot;background-color: initial;&quot;&gt;) : void&lt;/span&gt;&lt;/div&gt;&lt;div&gt;&lt;span style=&quot;background-color: initial;&quot;&gt;+ getClassement() : Classement&lt;/span&gt;&lt;/div&gt;&lt;div&gt;&lt;span style=&quot;background-color: initial;&quot;&gt;+ getListeAthletes () : List&amp;lt;Athletes&amp;gt;&lt;/span&gt;&lt;/div&gt;&lt;div&gt;&lt;span style=&quot;background-color: initial;&quot;&gt;+ addAthlete(athlete Athlete) : void&lt;/span&gt;&lt;/div&gt;&lt;div&gt;&lt;span style=&quot;background-color: initial;&quot;&gt;+ estPleine() : boolean&lt;/span&gt;&lt;/div&gt;&lt;div&gt;&lt;span style=&quot;background-color: initial;&quot;&gt;+ setPays(pays Pays) : void&lt;/span&gt;&lt;/div&gt;&lt;div&gt;&lt;span style=&quot;background-color: initial;&quot;&gt;+ (TOUTES LES FONCTIONS DE PARTICIPANT CAR IMPLEMENTS)&lt;/span&gt;&lt;/div&gt;" style="text;strokeColor=none;fillColor=none;align=left;verticalAlign=top;spacingLeft=4;spacingRight=4;overflow=hidden;rotatable=0;points=[[0,0.5],[1,0.5]];portConstraint=eastwest;whiteSpace=wrap;html=1;" parent="sNgtJWW5c5NjqKj0yKrV-0" vertex="1">
          <mxGeometry y="266" width="230" height="184" as="geometry" />
        </mxCell>
        <mxCell id="sNgtJWW5c5NjqKj0yKrV-10" value="1..*" style="text;html=1;align=center;verticalAlign=middle;whiteSpace=wrap;rounded=0;" parent="WIyWlLk6GJQsqaUBKTNV-1" vertex="1">
          <mxGeometry x="165" y="570" width="20" height="30" as="geometry" />
        </mxCell>
        <mxCell id="sNgtJWW5c5NjqKj0yKrV-11" value="1..1" style="text;html=1;align=center;verticalAlign=middle;whiteSpace=wrap;rounded=0;" parent="WIyWlLk6GJQsqaUBKTNV-1" vertex="1">
          <mxGeometry x="170" y="489" width="10" height="30" as="geometry" />
        </mxCell>
        <mxCell id="sNgtJWW5c5NjqKj0yKrV-12" value="1..*" style="text;html=1;align=center;verticalAlign=middle;whiteSpace=wrap;rounded=0;" parent="WIyWlLk6GJQsqaUBKTNV-1" vertex="1">
          <mxGeometry x="140" y="1050" width="40" height="30" as="geometry" />
        </mxCell>
        <mxCell id="sNgtJWW5c5NjqKj0yKrV-13" value="1..1" style="text;html=1;align=center;verticalAlign=middle;whiteSpace=wrap;rounded=0;" parent="WIyWlLk6GJQsqaUBKTNV-1" vertex="1">
          <mxGeometry x="384" y="1090" width="60" height="30" as="geometry" />
        </mxCell>
        <mxCell id="sNgtJWW5c5NjqKj0yKrV-15" value="1..1" style="text;html=1;align=center;verticalAlign=middle;whiteSpace=wrap;rounded=0;" parent="WIyWlLk6GJQsqaUBKTNV-1" vertex="1">
          <mxGeometry x="20" y="526" width="60" height="30" as="geometry" />
        </mxCell>
        <mxCell id="sNgtJWW5c5NjqKj0yKrV-16" value="Handball" style="swimlane;fontStyle=1;align=center;verticalAlign=top;childLayout=stackLayout;horizontal=1;startSize=26;horizontalStack=0;resizeParent=1;resizeParentMax=0;resizeLast=0;collapsible=1;marginBottom=0;whiteSpace=wrap;html=1;" parent="WIyWlLk6GJQsqaUBKTNV-1" vertex="1">
          <mxGeometry x="340" y="130" width="160" height="34" as="geometry" />
        </mxCell>
        <mxCell id="sNgtJWW5c5NjqKj0yKrV-18" value="" style="line;strokeWidth=1;fillColor=none;align=left;verticalAlign=middle;spacingTop=-1;spacingLeft=3;spacingRight=3;rotatable=0;labelPosition=right;points=[];portConstraint=eastwest;strokeColor=inherit;" parent="sNgtJWW5c5NjqKj0yKrV-16" vertex="1">
          <mxGeometry y="26" width="160" height="8" as="geometry" />
        </mxCell>
        <mxCell id="sNgtJWW5c5NjqKj0yKrV-20" value="&lt;div&gt;VolleyBall&lt;/div&gt;" style="swimlane;fontStyle=1;align=center;verticalAlign=top;childLayout=stackLayout;horizontal=1;startSize=26;horizontalStack=0;resizeParent=1;resizeParentMax=0;resizeLast=0;collapsible=1;marginBottom=0;whiteSpace=wrap;html=1;" parent="WIyWlLk6GJQsqaUBKTNV-1" vertex="1">
          <mxGeometry x="340" y="200" width="160" height="34" as="geometry" />
        </mxCell>
        <mxCell id="sNgtJWW5c5NjqKj0yKrV-22" value="" style="line;strokeWidth=1;fillColor=none;align=left;verticalAlign=middle;spacingTop=-1;spacingLeft=3;spacingRight=3;rotatable=0;labelPosition=right;points=[];portConstraint=eastwest;strokeColor=inherit;" parent="sNgtJWW5c5NjqKj0yKrV-20" vertex="1">
          <mxGeometry y="26" width="160" height="8" as="geometry" />
        </mxCell>
        <mxCell id="sNgtJWW5c5NjqKj0yKrV-24" value="Escrime" style="swimlane;fontStyle=1;align=center;verticalAlign=top;childLayout=stackLayout;horizontal=1;startSize=26;horizontalStack=0;resizeParent=1;resizeParentMax=0;resizeLast=0;collapsible=1;marginBottom=0;whiteSpace=wrap;html=1;" parent="WIyWlLk6GJQsqaUBKTNV-1" vertex="1">
          <mxGeometry x="340" y="274" width="160" height="60" as="geometry" />
        </mxCell>
        <mxCell id="sNgtJWW5c5NjqKj0yKrV-25" value="- type : String" style="text;strokeColor=none;fillColor=none;align=left;verticalAlign=top;spacingLeft=4;spacingRight=4;overflow=hidden;rotatable=0;points=[[0,0.5],[1,0.5]];portConstraint=eastwest;whiteSpace=wrap;html=1;" parent="sNgtJWW5c5NjqKj0yKrV-24" vertex="1">
          <mxGeometry y="26" width="160" height="26" as="geometry" />
        </mxCell>
        <mxCell id="sNgtJWW5c5NjqKj0yKrV-26" value="" style="line;strokeWidth=1;fillColor=none;align=left;verticalAlign=middle;spacingTop=-1;spacingLeft=3;spacingRight=3;rotatable=0;labelPosition=right;points=[];portConstraint=eastwest;strokeColor=inherit;" parent="sNgtJWW5c5NjqKj0yKrV-24" vertex="1">
          <mxGeometry y="52" width="160" height="8" as="geometry" />
        </mxCell>
        <mxCell id="sNgtJWW5c5NjqKj0yKrV-28" value="Natation&lt;span style=&quot;white-space: pre;&quot;&gt;&#x9;&lt;/span&gt;" style="swimlane;fontStyle=1;align=center;verticalAlign=top;childLayout=stackLayout;horizontal=1;startSize=26;horizontalStack=0;resizeParent=1;resizeParentMax=0;resizeLast=0;collapsible=1;marginBottom=0;whiteSpace=wrap;html=1;" parent="WIyWlLk6GJQsqaUBKTNV-1" vertex="1">
          <mxGeometry x="340" y="30" width="160" height="60" as="geometry" />
        </mxCell>
        <mxCell id="sgGLrwnaThKiIDgjscxB-2" value="- distance : int" style="text;strokeColor=none;fillColor=none;align=left;verticalAlign=top;spacingLeft=4;spacingRight=4;overflow=hidden;rotatable=0;points=[[0,0.5],[1,0.5]];portConstraint=eastwest;whiteSpace=wrap;html=1;" parent="sNgtJWW5c5NjqKj0yKrV-28" vertex="1">
          <mxGeometry y="26" width="160" height="26" as="geometry" />
        </mxCell>
        <mxCell id="sNgtJWW5c5NjqKj0yKrV-30" value="" style="line;strokeWidth=1;fillColor=none;align=left;verticalAlign=middle;spacingTop=-1;spacingLeft=3;spacingRight=3;rotatable=0;labelPosition=right;points=[];portConstraint=eastwest;strokeColor=inherit;" parent="sNgtJWW5c5NjqKj0yKrV-28" vertex="1">
          <mxGeometry y="52" width="160" height="8" as="geometry" />
        </mxCell>
        <mxCell id="sNgtJWW5c5NjqKj0yKrV-32" value="Athlétisme" style="swimlane;fontStyle=1;align=center;verticalAlign=top;childLayout=stackLayout;horizontal=1;startSize=26;horizontalStack=0;resizeParent=1;resizeParentMax=0;resizeLast=0;collapsible=1;marginBottom=0;whiteSpace=wrap;html=1;" parent="WIyWlLk6GJQsqaUBKTNV-1" vertex="1">
          <mxGeometry x="340" y="374" width="160" height="60" as="geometry" />
        </mxCell>
        <mxCell id="sNgtJWW5c5NjqKj0yKrV-33" value="- distance : int" style="text;strokeColor=none;fillColor=none;align=left;verticalAlign=top;spacingLeft=4;spacingRight=4;overflow=hidden;rotatable=0;points=[[0,0.5],[1,0.5]];portConstraint=eastwest;whiteSpace=wrap;html=1;" parent="sNgtJWW5c5NjqKj0yKrV-32" vertex="1">
          <mxGeometry y="26" width="160" height="26" as="geometry" />
        </mxCell>
        <mxCell id="sNgtJWW5c5NjqKj0yKrV-34" value="" style="line;strokeWidth=1;fillColor=none;align=left;verticalAlign=middle;spacingTop=-1;spacingLeft=3;spacingRight=3;rotatable=0;labelPosition=right;points=[];portConstraint=eastwest;strokeColor=inherit;" parent="sNgtJWW5c5NjqKj0yKrV-32" vertex="1">
          <mxGeometry y="52" width="160" height="8" as="geometry" />
        </mxCell>
        <mxCell id="sNgtJWW5c5NjqKj0yKrV-47" value="1..1" style="text;html=1;align=center;verticalAlign=middle;whiteSpace=wrap;rounded=0;" parent="WIyWlLk6GJQsqaUBKTNV-1" vertex="1">
          <mxGeometry x="680" y="338" width="60" height="30" as="geometry" />
        </mxCell>
        <mxCell id="sNgtJWW5c5NjqKj0yKrV-51" value="{abstract} Competitions" style="swimlane;fontStyle=1;align=center;verticalAlign=top;childLayout=stackLayout;horizontal=1;startSize=26;horizontalStack=0;resizeParent=1;resizeParentMax=0;resizeLast=0;collapsible=1;marginBottom=0;whiteSpace=wrap;html=1;" parent="WIyWlLk6GJQsqaUBKTNV-1" vertex="1">
          <mxGeometry x="595" y="530" width="300" height="250" as="geometry">
            <mxRectangle x="1060" y="585" width="160" height="30" as="alternateBounds" />
          </mxGeometry>
        </mxCell>
        <mxCell id="sNgtJWW5c5NjqKj0yKrV-52" value="- nbParticipants : int" style="text;strokeColor=none;fillColor=none;align=left;verticalAlign=top;spacingLeft=4;spacingRight=4;overflow=hidden;rotatable=0;points=[[0,0.5],[1,0.5]];portConstraint=eastwest;whiteSpace=wrap;html=1;" parent="sNgtJWW5c5NjqKj0yKrV-51" vertex="1">
          <mxGeometry y="26" width="300" height="26" as="geometry" />
        </mxCell>
        <mxCell id="sNgtJWW5c5NjqKj0yKrV-53" value="- sexe : String" style="text;strokeColor=none;fillColor=none;align=left;verticalAlign=top;spacingLeft=4;spacingRight=4;overflow=hidden;rotatable=0;points=[[0,0.5],[1,0.5]];portConstraint=eastwest;whiteSpace=wrap;html=1;" parent="sNgtJWW5c5NjqKj0yKrV-51" vertex="1">
          <mxGeometry y="52" width="300" height="26" as="geometry" />
        </mxCell>
        <mxCell id="sNgtJWW5c5NjqKj0yKrV-54" value="" style="line;strokeWidth=1;fillColor=none;align=left;verticalAlign=middle;spacingTop=-1;spacingLeft=3;spacingRight=3;rotatable=0;labelPosition=right;points=[];portConstraint=eastwest;strokeColor=inherit;" parent="sNgtJWW5c5NjqKj0yKrV-51" vertex="1">
          <mxGeometry y="78" width="300" height="8" as="geometry" />
        </mxCell>
        <mxCell id="sNgtJWW5c5NjqKj0yKrV-55" value="+ Competitions(sport : Sport, sexe Sexe)" style="text;strokeColor=none;fillColor=none;align=left;verticalAlign=top;spacingLeft=4;spacingRight=4;overflow=hidden;rotatable=0;points=[[0,0.5],[1,0.5]];portConstraint=eastwest;whiteSpace=wrap;html=1;" parent="sNgtJWW5c5NjqKj0yKrV-51" vertex="1">
          <mxGeometry y="86" width="300" height="26" as="geometry" />
        </mxCell>
        <mxCell id="sgGLrwnaThKiIDgjscxB-52" value="+ getSexe () : Sexe" style="text;strokeColor=none;fillColor=none;align=left;verticalAlign=top;spacingLeft=4;spacingRight=4;overflow=hidden;rotatable=0;points=[[0,0.5],[1,0.5]];portConstraint=eastwest;whiteSpace=wrap;html=1;" parent="sNgtJWW5c5NjqKj0yKrV-51" vertex="1">
          <mxGeometry y="112" width="300" height="26" as="geometry" />
        </mxCell>
        <mxCell id="sgGLrwnaThKiIDgjscxB-15" value="+ getParticipants () : List&amp;lt;Participant&amp;gt;&lt;div&gt;+ enregistrerParticipant (participant: Participant) : void&lt;/div&gt;&lt;div&gt;+ jouer () : List&amp;lt;Participant&amp;gt;&lt;/div&gt;&lt;div&gt;+ calculerPlacement() : List&amp;lt;Participant&amp;gt;&lt;/div&gt;&lt;div&gt;+ getSport() : Sport&lt;/div&gt;&lt;div&gt;+ finirCompetition() : boolean&lt;/div&gt;" style="text;strokeColor=none;fillColor=none;align=left;verticalAlign=top;spacingLeft=4;spacingRight=4;overflow=hidden;rotatable=0;points=[[0,0.5],[1,0.5]];portConstraint=eastwest;whiteSpace=wrap;html=1;" parent="sNgtJWW5c5NjqKj0yKrV-51" vertex="1">
          <mxGeometry y="138" width="300" height="112" as="geometry" />
        </mxCell>
        <mxCell id="sNgtJWW5c5NjqKj0yKrV-56" value="CompétitionIndividuel" style="swimlane;fontStyle=1;align=center;verticalAlign=top;childLayout=stackLayout;horizontal=1;startSize=26;horizontalStack=0;resizeParent=1;resizeParentMax=0;resizeLast=0;collapsible=1;marginBottom=0;whiteSpace=wrap;html=1;" parent="WIyWlLk6GJQsqaUBKTNV-1" vertex="1">
          <mxGeometry x="580" y="820" width="160" height="60" as="geometry" />
        </mxCell>
        <mxCell id="sNgtJWW5c5NjqKj0yKrV-58" value="- nbParticipants : int" style="text;strokeColor=none;fillColor=none;align=left;verticalAlign=top;spacingLeft=4;spacingRight=4;overflow=hidden;rotatable=0;points=[[0,0.5],[1,0.5]];portConstraint=eastwest;whiteSpace=wrap;html=1;" parent="sNgtJWW5c5NjqKj0yKrV-56" vertex="1">
          <mxGeometry y="26" width="160" height="26" as="geometry" />
        </mxCell>
        <mxCell id="sNgtJWW5c5NjqKj0yKrV-59" value="" style="line;strokeWidth=1;fillColor=none;align=left;verticalAlign=middle;spacingTop=-1;spacingLeft=3;spacingRight=3;rotatable=0;labelPosition=right;points=[];portConstraint=eastwest;strokeColor=inherit;" parent="sNgtJWW5c5NjqKj0yKrV-56" vertex="1">
          <mxGeometry y="52" width="160" height="8" as="geometry" />
        </mxCell>
        <mxCell id="sNgtJWW5c5NjqKj0yKrV-61" value="CompétitionCollective" style="swimlane;fontStyle=1;align=center;verticalAlign=top;childLayout=stackLayout;horizontal=1;startSize=26;horizontalStack=0;resizeParent=1;resizeParentMax=0;resizeLast=0;collapsible=1;marginBottom=0;whiteSpace=wrap;html=1;" parent="WIyWlLk6GJQsqaUBKTNV-1" vertex="1">
          <mxGeometry x="770" y="820" width="160" height="60" as="geometry" />
        </mxCell>
        <mxCell id="sNgtJWW5c5NjqKj0yKrV-62" value="- nbParticipants : int" style="text;strokeColor=none;fillColor=none;align=left;verticalAlign=top;spacingLeft=4;spacingRight=4;overflow=hidden;rotatable=0;points=[[0,0.5],[1,0.5]];portConstraint=eastwest;whiteSpace=wrap;html=1;" parent="sNgtJWW5c5NjqKj0yKrV-61" vertex="1">
          <mxGeometry y="26" width="160" height="26" as="geometry" />
        </mxCell>
        <mxCell id="sNgtJWW5c5NjqKj0yKrV-64" value="" style="line;strokeWidth=1;fillColor=none;align=left;verticalAlign=middle;spacingTop=-1;spacingLeft=3;spacingRight=3;rotatable=0;labelPosition=right;points=[];portConstraint=eastwest;strokeColor=inherit;" parent="sNgtJWW5c5NjqKj0yKrV-61" vertex="1">
          <mxGeometry y="52" width="160" height="8" as="geometry" />
        </mxCell>
        <mxCell id="sNgtJWW5c5NjqKj0yKrV-87" value="&lt;i&gt;&amp;lt;&amp;lt;interface&amp;gt;&amp;gt; Participant&lt;/i&gt;" style="swimlane;fontStyle=1;align=center;verticalAlign=top;childLayout=stackLayout;horizontal=1;startSize=26;horizontalStack=0;resizeParent=1;resizeParentMax=0;resizeLast=0;collapsible=1;marginBottom=0;whiteSpace=wrap;html=1;" parent="WIyWlLk6GJQsqaUBKTNV-1" vertex="1">
          <mxGeometry x="380" y="620" width="320" height="230" as="geometry" />
        </mxCell>
        <mxCell id="sNgtJWW5c5NjqKj0yKrV-89" value="" style="line;strokeWidth=1;fillColor=none;align=left;verticalAlign=middle;spacingTop=-1;spacingLeft=3;spacingRight=3;rotatable=0;labelPosition=right;points=[];portConstraint=eastwest;strokeColor=inherit;" parent="sNgtJWW5c5NjqKj0yKrV-87" vertex="1">
          <mxGeometry y="26" width="320" height="8" as="geometry" />
        </mxCell>
        <mxCell id="sNgtJWW5c5NjqKj0yKrV-90" value="+ participer() : float" style="text;strokeColor=none;fillColor=none;align=left;verticalAlign=top;spacingLeft=4;spacingRight=4;overflow=hidden;rotatable=0;points=[[0,0.5],[1,0.5]];portConstraint=eastwest;whiteSpace=wrap;html=1;" parent="sNgtJWW5c5NjqKj0yKrV-87" vertex="1">
          <mxGeometry y="34" width="320" height="26" as="geometry" />
        </mxCell>
        <mxCell id="sgGLrwnaThKiIDgjscxB-6" value="+ obtenirNom() : String&lt;div&gt;+ obtenirSexe() : Sexe&lt;br&gt;&lt;/div&gt;&lt;div&gt;+ obtenirPays() : Pays&lt;br&gt;&lt;/div&gt;&lt;div&gt;+&lt;span style=&quot;background-color: initial;&quot;&gt;&amp;nbsp;obtenirEquipes() : Equipes&lt;/span&gt;&lt;/div&gt;&lt;div&gt;+ getCompetitionActuelle() : Competition&lt;/div&gt;&lt;div&gt;+ setCompetitionActuelle(competition : Competition): void&lt;/div&gt;&lt;div&gt;+ getClassement() : Classement&lt;/div&gt;&lt;div&gt;+ getForce() : int&lt;/div&gt;&lt;div&gt;+ getAgilite() : int&lt;br&gt;&lt;/div&gt;&lt;div&gt;+ getEndurance() : int&lt;br&gt;&lt;/div&gt;&lt;div&gt;+ getPerformance() : int&lt;br&gt;&lt;/div&gt;" style="text;strokeColor=none;fillColor=none;align=left;verticalAlign=top;spacingLeft=4;spacingRight=4;overflow=hidden;rotatable=0;points=[[0,0.5],[1,0.5]];portConstraint=eastwest;whiteSpace=wrap;html=1;" parent="sNgtJWW5c5NjqKj0yKrV-87" vertex="1">
          <mxGeometry y="60" width="320" height="170" as="geometry" />
        </mxCell>
        <mxCell id="sNgtJWW5c5NjqKj0yKrV-96" value="JeuxOlympiques" style="swimlane;fontStyle=1;align=center;verticalAlign=top;childLayout=stackLayout;horizontal=1;startSize=26;horizontalStack=0;resizeParent=1;resizeParentMax=0;resizeLast=0;collapsible=1;marginBottom=0;whiteSpace=wrap;html=1;" parent="WIyWlLk6GJQsqaUBKTNV-1" vertex="1">
          <mxGeometry x="1040" y="556" width="570" height="410" as="geometry" />
        </mxCell>
        <mxCell id="sNgtJWW5c5NjqKj0yKrV-97" value="- annee : int" style="text;strokeColor=none;fillColor=none;align=left;verticalAlign=top;spacingLeft=4;spacingRight=4;overflow=hidden;rotatable=0;points=[[0,0.5],[1,0.5]];portConstraint=eastwest;whiteSpace=wrap;html=1;" parent="sNgtJWW5c5NjqKj0yKrV-96" vertex="1">
          <mxGeometry y="26" width="570" height="26" as="geometry" />
        </mxCell>
        <mxCell id="sgGLrwnaThKiIDgjscxB-42" value="- nbEpreuves : int" style="text;strokeColor=none;fillColor=none;align=left;verticalAlign=top;spacingLeft=4;spacingRight=4;overflow=hidden;rotatable=0;points=[[0,0.5],[1,0.5]];portConstraint=eastwest;whiteSpace=wrap;html=1;" parent="sNgtJWW5c5NjqKj0yKrV-96" vertex="1">
          <mxGeometry y="52" width="570" height="26" as="geometry" />
        </mxCell>
        <mxCell id="sNgtJWW5c5NjqKj0yKrV-98" value="" style="line;strokeWidth=1;fillColor=none;align=left;verticalAlign=middle;spacingTop=-1;spacingLeft=3;spacingRight=3;rotatable=0;labelPosition=right;points=[];portConstraint=eastwest;strokeColor=inherit;" parent="sNgtJWW5c5NjqKj0yKrV-96" vertex="1">
          <mxGeometry y="78" width="570" height="8" as="geometry" />
        </mxCell>
        <mxCell id="sNgtJWW5c5NjqKj0yKrV-99" value="+ JeuxOlympiques(annee : int, nbEpreuves : int) : void&lt;div&gt;&lt;br&gt;&lt;/div&gt;&lt;div&gt;+&amp;nbsp;&lt;/div&gt;" style="text;strokeColor=none;fillColor=none;align=left;verticalAlign=top;spacingLeft=4;spacingRight=4;overflow=hidden;rotatable=0;points=[[0,0.5],[1,0.5]];portConstraint=eastwest;whiteSpace=wrap;html=1;" parent="sNgtJWW5c5NjqKj0yKrV-96" vertex="1">
          <mxGeometry y="86" width="570" height="26" as="geometry" />
        </mxCell>
        <mxCell id="sgGLrwnaThKiIDgjscxB-41" value="+ demarrerCompetition() : void" style="text;strokeColor=none;fillColor=none;align=left;verticalAlign=top;spacingLeft=4;spacingRight=4;overflow=hidden;rotatable=0;points=[[0,0.5],[1,0.5]];portConstraint=eastwest;whiteSpace=wrap;html=1;" parent="sNgtJWW5c5NjqKj0yKrV-96" vertex="1">
          <mxGeometry y="112" width="570" height="26" as="geometry" />
        </mxCell>
        <mxCell id="sgGLrwnaThKiIDgjscxB-7" value="+ enregistrerResultat(Participant) : void" style="text;strokeColor=none;fillColor=none;align=left;verticalAlign=top;spacingLeft=4;spacingRight=4;overflow=hidden;rotatable=0;points=[[0,0.5],[1,0.5]];portConstraint=eastwest;whiteSpace=wrap;html=1;" parent="sNgtJWW5c5NjqKj0yKrV-96" vertex="1">
          <mxGeometry y="138" width="570" height="26" as="geometry" />
        </mxCell>
        <mxCell id="sgGLrwnaThKiIDgjscxB-8" value="+ recupererResultat(Participant) : int&amp;nbsp;" style="text;strokeColor=none;fillColor=none;align=left;verticalAlign=top;spacingLeft=4;spacingRight=4;overflow=hidden;rotatable=0;points=[[0,0.5],[1,0.5]];portConstraint=eastwest;whiteSpace=wrap;html=1;" parent="sNgtJWW5c5NjqKj0yKrV-96" vertex="1">
          <mxGeometry y="164" width="570" height="26" as="geometry" />
        </mxCell>
        <mxCell id="sgGLrwnaThKiIDgjscxB-9" value="+ enregistrerCompetition(Competition): void" style="text;strokeColor=none;fillColor=none;align=left;verticalAlign=top;spacingLeft=4;spacingRight=4;overflow=hidden;rotatable=0;points=[[0,0.5],[1,0.5]];portConstraint=eastwest;whiteSpace=wrap;html=1;" parent="sNgtJWW5c5NjqKj0yKrV-96" vertex="1">
          <mxGeometry y="190" width="570" height="26" as="geometry" />
        </mxCell>
        <mxCell id="sgGLrwnaThKiIDgjscxB-10" value="+ enregistrerParticipant(Participant) : void" style="text;strokeColor=none;fillColor=none;align=left;verticalAlign=top;spacingLeft=4;spacingRight=4;overflow=hidden;rotatable=0;points=[[0,0.5],[1,0.5]];portConstraint=eastwest;whiteSpace=wrap;html=1;" parent="sNgtJWW5c5NjqKj0yKrV-96" vertex="1">
          <mxGeometry y="216" width="570" height="26" as="geometry" />
        </mxCell>
        <mxCell id="sgGLrwnaThKiIDgjscxB-16" value="+ classementMedailles() : Participant[*]" style="text;strokeColor=none;fillColor=none;align=left;verticalAlign=top;spacingLeft=4;spacingRight=4;overflow=hidden;rotatable=0;points=[[0,0.5],[1,0.5]];portConstraint=eastwest;whiteSpace=wrap;html=1;" parent="sNgtJWW5c5NjqKj0yKrV-96" vertex="1">
          <mxGeometry y="242" width="570" height="26" as="geometry" />
        </mxCell>
        <mxCell id="sgGLrwnaThKiIDgjscxB-22" value="+ classementMedaillesOr() : Participant[*]&lt;div&gt;+ getAnnee() : int&amp;nbsp;&lt;/div&gt;&lt;div&gt;+ getNbEpreuves() : int&lt;/div&gt;&lt;div&gt;+ getLesCompetitions() : List&amp;lt;Competition&amp;gt;&lt;/div&gt;&lt;div&gt;+ lancerJeuxOlympiques()&amp;nbsp; : void&lt;/div&gt;&lt;div&gt;+ convertFromArrayCsv (annee : int, records : List&amp;lt;List&amp;lt;String&amp;gt;&amp;gt;) : JeuxOlympiques&lt;/div&gt;&lt;div&gt;+ genererCompetition(competition: Competition, participant Participant, competitions List&amp;lt;Competition&amp;gt;)&amp;nbsp;&lt;/div&gt;&lt;div&gt;+ getEquipeDispo(listePays : List&amp;lt;Pays&amp;gt;, sport :Sport, athlete : Athlete)&lt;/div&gt;&lt;div&gt;+ fromCsv(path : String)&lt;/div&gt;" style="text;strokeColor=none;fillColor=none;align=left;verticalAlign=top;spacingLeft=4;spacingRight=4;overflow=hidden;rotatable=0;points=[[0,0.5],[1,0.5]];portConstraint=eastwest;whiteSpace=wrap;html=1;" parent="sNgtJWW5c5NjqKj0yKrV-96" vertex="1">
          <mxGeometry y="268" width="570" height="142" as="geometry" />
        </mxCell>
        <mxCell id="sNgtJWW5c5NjqKj0yKrV-102" style="edgeStyle=orthogonalEdgeStyle;rounded=0;orthogonalLoop=1;jettySize=auto;html=1;entryX=1;entryY=0.5;entryDx=0;entryDy=0;endArrow=open;endFill=0;startArrow=none;startFill=0;exitX=0;exitY=0.5;exitDx=0;exitDy=0;" parent="WIyWlLk6GJQsqaUBKTNV-1" source="sNgtJWW5c5NjqKj0yKrV-97" target="sNgtJWW5c5NjqKj0yKrV-53" edge="1">
          <mxGeometry relative="1" as="geometry">
            <mxPoint x="990" y="595" as="sourcePoint" />
            <Array as="points" />
          </mxGeometry>
        </mxCell>
        <mxCell id="sNgtJWW5c5NjqKj0yKrV-108" value="1..1" style="text;html=1;align=center;verticalAlign=middle;whiteSpace=wrap;rounded=0;" parent="WIyWlLk6GJQsqaUBKTNV-1" vertex="1">
          <mxGeometry x="570" y="546" width="10" height="30" as="geometry" />
        </mxCell>
        <mxCell id="h_iLT1wmqkSfiE5aM4jx-0" value="1..*" style="text;html=1;align=center;verticalAlign=middle;whiteSpace=wrap;rounded=0;" parent="WIyWlLk6GJQsqaUBKTNV-1" vertex="1">
          <mxGeometry x="130" y="1190" width="60" height="30" as="geometry" />
        </mxCell>
        <mxCell id="BDxbc9C00t5U4hKIIXv_-0" value="- lesCompetitions" style="text;html=1;align=center;verticalAlign=middle;whiteSpace=wrap;rounded=0;" parent="WIyWlLk6GJQsqaUBKTNV-1" vertex="1">
          <mxGeometry x="900" y="600" width="100" height="30" as="geometry" />
        </mxCell>
        <mxCell id="BDxbc9C00t5U4hKIIXv_-1" value="-listeAthlètes" style="text;html=1;align=center;verticalAlign=middle;whiteSpace=wrap;rounded=0;" parent="WIyWlLk6GJQsqaUBKTNV-1" vertex="1">
          <mxGeometry x="120" y="1220" width="80" height="30" as="geometry" />
        </mxCell>
        <mxCell id="BDxbc9C00t5U4hKIIXv_-4" value="- pays" style="text;html=1;align=center;verticalAlign=middle;resizable=0;points=[];autosize=1;strokeColor=none;fillColor=none;" parent="WIyWlLk6GJQsqaUBKTNV-1" vertex="1">
          <mxGeometry x="200" y="489" width="60" height="30" as="geometry" />
        </mxCell>
        <mxCell id="BDxbc9C00t5U4hKIIXv_-6" value="- listeEquipes&amp;nbsp;" style="text;html=1;align=center;verticalAlign=middle;resizable=0;points=[];autosize=1;strokeColor=none;fillColor=none;" parent="WIyWlLk6GJQsqaUBKTNV-1" vertex="1">
          <mxGeometry x="191" y="570" width="100" height="30" as="geometry" />
        </mxCell>
        <mxCell id="BDxbc9C00t5U4hKIIXv_-7" value="- equipe" style="text;html=1;align=center;verticalAlign=middle;resizable=0;points=[];autosize=1;strokeColor=none;fillColor=none;" parent="WIyWlLk6GJQsqaUBKTNV-1" vertex="1">
          <mxGeometry x="320" y="1090" width="70" height="30" as="geometry" />
        </mxCell>
        <mxCell id="BDxbc9C00t5U4hKIIXv_-8" value="- listeAthlètes" style="text;html=1;align=center;verticalAlign=middle;resizable=0;points=[];autosize=1;strokeColor=none;fillColor=none;" parent="WIyWlLk6GJQsqaUBKTNV-1" vertex="1">
          <mxGeometry x="185" y="1060" width="100" height="30" as="geometry" />
        </mxCell>
        <mxCell id="BDxbc9C00t5U4hKIIXv_-9" value="- sport" style="text;html=1;align=center;verticalAlign=middle;resizable=0;points=[];autosize=1;strokeColor=none;fillColor=none;" parent="WIyWlLk6GJQsqaUBKTNV-1" vertex="1">
          <mxGeometry x="710" y="338" width="60" height="30" as="geometry" />
        </mxCell>
        <mxCell id="pUj-b2Uj-Xdy8y7BLc4v-0" style="edgeStyle=orthogonalEdgeStyle;rounded=0;orthogonalLoop=1;jettySize=auto;html=1;endArrow=none;endFill=0;startArrow=block;startFill=0;entryX=0.75;entryY=0;entryDx=0;entryDy=0;" parent="WIyWlLk6GJQsqaUBKTNV-1" source="sgGLrwnaThKiIDgjscxB-15" target="sNgtJWW5c5NjqKj0yKrV-56" edge="1">
          <mxGeometry relative="1" as="geometry">
            <Array as="points">
              <mxPoint x="660" y="754" />
            </Array>
            <mxPoint x="660" y="690" as="sourcePoint" />
            <mxPoint x="660" y="766" as="targetPoint" />
          </mxGeometry>
        </mxCell>
        <mxCell id="pUj-b2Uj-Xdy8y7BLc4v-4" style="edgeStyle=orthogonalEdgeStyle;rounded=0;orthogonalLoop=1;jettySize=auto;html=1;exitX=1;exitY=0.5;exitDx=0;exitDy=0;entryX=0;entryY=0.5;entryDx=0;entryDy=0;endArrow=none;endFill=0;" parent="WIyWlLk6GJQsqaUBKTNV-1" target="sNgtJWW5c5NjqKj0yKrV-52" edge="1">
          <mxGeometry relative="1" as="geometry">
            <mxPoint x="480" y="569.0000000000001" as="sourcePoint" />
          </mxGeometry>
        </mxCell>
        <mxCell id="pUj-b2Uj-Xdy8y7BLc4v-5" value="1..*" style="text;html=1;align=center;verticalAlign=middle;whiteSpace=wrap;rounded=0;" parent="WIyWlLk6GJQsqaUBKTNV-1" vertex="1">
          <mxGeometry x="460" y="546" width="60" height="30" as="geometry" />
        </mxCell>
        <mxCell id="pUj-b2Uj-Xdy8y7BLc4v-6" value="- participants" style="text;html=1;align=center;verticalAlign=middle;whiteSpace=wrap;rounded=0;" parent="WIyWlLk6GJQsqaUBKTNV-1" vertex="1">
          <mxGeometry x="480" y="570" width="80" height="30" as="geometry" />
        </mxCell>
        <mxCell id="pUj-b2Uj-Xdy8y7BLc4v-7" value="- compétition" style="text;html=1;align=center;verticalAlign=middle;whiteSpace=wrap;rounded=0;" parent="WIyWlLk6GJQsqaUBKTNV-1" vertex="1">
          <mxGeometry x="515" y="526" width="80" height="30" as="geometry" />
        </mxCell>
        <mxCell id="pUj-b2Uj-Xdy8y7BLc4v-12" style="edgeStyle=orthogonalEdgeStyle;rounded=0;orthogonalLoop=1;jettySize=auto;html=1;exitX=1;exitY=0.5;exitDx=0;exitDy=0;entryX=0;entryY=0.5;entryDx=0;entryDy=0;endArrow=block;endFill=0;" parent="WIyWlLk6GJQsqaUBKTNV-1" source="sNgtJWW5c5NjqKj0yKrV-33" target="z6xIJ1BXpiOvv1FL2pou-1" edge="1">
          <mxGeometry relative="1" as="geometry" />
        </mxCell>
        <mxCell id="pUj-b2Uj-Xdy8y7BLc4v-14" value="1..*" style="text;html=1;align=center;verticalAlign=middle;whiteSpace=wrap;rounded=0;" parent="WIyWlLk6GJQsqaUBKTNV-1" vertex="1">
          <mxGeometry x="890" y="558" width="60" height="30" as="geometry" />
        </mxCell>
        <mxCell id="sgGLrwnaThKiIDgjscxB-25" value="- pays" style="text;html=1;align=center;verticalAlign=middle;resizable=0;points=[];autosize=1;strokeColor=none;fillColor=none;" parent="WIyWlLk6GJQsqaUBKTNV-1" vertex="1">
          <mxGeometry x="30" y="510" width="60" height="30" as="geometry" />
        </mxCell>
        <mxCell id="sgGLrwnaThKiIDgjscxB-31" style="edgeStyle=orthogonalEdgeStyle;rounded=0;orthogonalLoop=1;jettySize=auto;html=1;exitX=1;exitY=0.5;exitDx=0;exitDy=0;entryX=0;entryY=0.5;entryDx=0;entryDy=0;endArrow=block;endFill=0;" parent="WIyWlLk6GJQsqaUBKTNV-1" source="sNgtJWW5c5NjqKj0yKrV-25" target="z6xIJ1BXpiOvv1FL2pou-1" edge="1">
          <mxGeometry relative="1" as="geometry">
            <mxPoint x="490" y="423" as="sourcePoint" />
            <mxPoint x="620" y="271" as="targetPoint" />
          </mxGeometry>
        </mxCell>
        <mxCell id="sgGLrwnaThKiIDgjscxB-32" style="edgeStyle=orthogonalEdgeStyle;rounded=0;orthogonalLoop=1;jettySize=auto;html=1;exitX=1;exitY=0.5;exitDx=0;exitDy=0;entryX=0;entryY=0.5;entryDx=0;entryDy=0;endArrow=block;endFill=0;" parent="WIyWlLk6GJQsqaUBKTNV-1" source="sNgtJWW5c5NjqKj0yKrV-20" target="z6xIJ1BXpiOvv1FL2pou-1" edge="1">
          <mxGeometry relative="1" as="geometry">
            <mxPoint x="390" y="339" as="sourcePoint" />
            <mxPoint x="620" y="271" as="targetPoint" />
          </mxGeometry>
        </mxCell>
        <mxCell id="sgGLrwnaThKiIDgjscxB-33" style="edgeStyle=orthogonalEdgeStyle;rounded=0;orthogonalLoop=1;jettySize=auto;html=1;exitX=1;exitY=0.5;exitDx=0;exitDy=0;entryX=0;entryY=0.5;entryDx=0;entryDy=0;endArrow=block;endFill=0;" parent="WIyWlLk6GJQsqaUBKTNV-1" source="sNgtJWW5c5NjqKj0yKrV-16" target="z6xIJ1BXpiOvv1FL2pou-1" edge="1">
          <mxGeometry relative="1" as="geometry">
            <mxPoint x="414" y="257" as="sourcePoint" />
            <mxPoint x="620" y="271" as="targetPoint" />
          </mxGeometry>
        </mxCell>
        <mxCell id="sgGLrwnaThKiIDgjscxB-34" style="edgeStyle=orthogonalEdgeStyle;rounded=0;orthogonalLoop=1;jettySize=auto;html=1;exitX=1;exitY=0.5;exitDx=0;exitDy=0;entryX=0;entryY=0.5;entryDx=0;entryDy=0;endArrow=block;endFill=0;" parent="WIyWlLk6GJQsqaUBKTNV-1" source="sgGLrwnaThKiIDgjscxB-2" target="z6xIJ1BXpiOvv1FL2pou-1" edge="1">
          <mxGeometry relative="1" as="geometry">
            <mxPoint x="425" y="127" as="sourcePoint" />
            <mxPoint x="620" y="271" as="targetPoint" />
          </mxGeometry>
        </mxCell>
        <mxCell id="0WDfXfLjRiSCRCVq6uFS-0" value="Classement" style="swimlane;fontStyle=1;align=center;verticalAlign=top;childLayout=stackLayout;horizontal=1;startSize=26;horizontalStack=0;resizeParent=1;resizeParentMax=0;resizeLast=0;collapsible=1;marginBottom=0;whiteSpace=wrap;html=1;" vertex="1" parent="WIyWlLk6GJQsqaUBKTNV-1">
          <mxGeometry x="630" y="920" width="200" height="210" as="geometry" />
        </mxCell>
        <mxCell id="0WDfXfLjRiSCRCVq6uFS-1" value="- medaillesOr : int&amp;nbsp;&lt;div&gt;- medailesArgent : int&amp;nbsp;&lt;/div&gt;&lt;div&gt;- medaillesBronze: int&lt;/div&gt;" style="text;strokeColor=none;fillColor=none;align=left;verticalAlign=top;spacingLeft=4;spacingRight=4;overflow=hidden;rotatable=0;points=[[0,0.5],[1,0.5]];portConstraint=eastwest;whiteSpace=wrap;html=1;" vertex="1" parent="0WDfXfLjRiSCRCVq6uFS-0">
          <mxGeometry y="26" width="200" height="54" as="geometry" />
        </mxCell>
        <mxCell id="0WDfXfLjRiSCRCVq6uFS-6" value="" style="endArrow=none;html=1;rounded=0;entryX=0.996;entryY=-0.026;entryDx=0;entryDy=0;entryPerimeter=0;exitX=-0.012;exitY=0.974;exitDx=0;exitDy=0;exitPerimeter=0;" edge="1" parent="0WDfXfLjRiSCRCVq6uFS-0">
          <mxGeometry width="50" height="50" relative="1" as="geometry">
            <mxPoint x="-9.103828801926284e-14" y="78.99600000000001" as="sourcePoint" />
            <mxPoint x="201.60000000000005" y="78.99600000000001" as="targetPoint" />
          </mxGeometry>
        </mxCell>
        <mxCell id="0WDfXfLjRiSCRCVq6uFS-5" value="+ Classement ()&amp;nbsp;&lt;div&gt;+ getMedaillesOr() : int&amp;nbsp;&lt;/div&gt;&lt;div&gt;+&amp;nbsp;&lt;span style=&quot;background-color: initial;&quot;&gt;getMedaillesArgent() : int&lt;/span&gt;&lt;/div&gt;&lt;div&gt;+ getMedaillesBronze() : int&lt;span style=&quot;background-color: initial;&quot;&gt;&lt;br&gt;&lt;/span&gt;&lt;/div&gt;&lt;div&gt;+ ajouteMedailleOr () : void&lt;/div&gt;&lt;div&gt;+&amp;nbsp;&lt;span style=&quot;background-color: initial;&quot;&gt;ajouteMedailleArgent () : void&lt;/span&gt;&lt;/div&gt;&lt;div&gt;&lt;span style=&quot;background-color: initial;&quot;&gt;+&amp;nbsp;&lt;/span&gt;&lt;span style=&quot;background-color: initial;&quot;&gt;ajouteMedailleBronze () : void&lt;/span&gt;&lt;/div&gt;&lt;div&gt;&lt;span style=&quot;background-color: initial;&quot;&gt;+ getTotal()&amp;nbsp; : int&lt;/span&gt;&lt;/div&gt;" style="text;strokeColor=none;fillColor=none;align=left;verticalAlign=top;spacingLeft=4;spacingRight=4;overflow=hidden;rotatable=0;points=[[0,0.5],[1,0.5]];portConstraint=eastwest;whiteSpace=wrap;html=1;" vertex="1" parent="0WDfXfLjRiSCRCVq6uFS-0">
          <mxGeometry y="80" width="200" height="130" as="geometry" />
        </mxCell>
        <mxCell id="0WDfXfLjRiSCRCVq6uFS-8" style="edgeStyle=orthogonalEdgeStyle;rounded=0;orthogonalLoop=1;jettySize=auto;html=1;entryX=0.85;entryY=1;entryDx=0;entryDy=0;entryPerimeter=0;endArrow=block;endFill=0;" edge="1" parent="WIyWlLk6GJQsqaUBKTNV-1" source="sNgtJWW5c5NjqKj0yKrV-61" target="sgGLrwnaThKiIDgjscxB-15">
          <mxGeometry relative="1" as="geometry" />
        </mxCell>
        <mxCell id="0WDfXfLjRiSCRCVq6uFS-9" style="edgeStyle=orthogonalEdgeStyle;rounded=0;orthogonalLoop=1;jettySize=auto;html=1;entryX=0.435;entryY=1;entryDx=0;entryDy=0;entryPerimeter=0;endArrow=none;endFill=0;" edge="1" parent="WIyWlLk6GJQsqaUBKTNV-1" source="z6xIJ1BXpiOvv1FL2pou-9" target="sNgtJWW5c5NjqKj0yKrV-3">
          <mxGeometry relative="1" as="geometry">
            <Array as="points">
              <mxPoint x="385" y="1090" />
              <mxPoint x="183" y="1090" />
              <mxPoint x="183" y="1050" />
            </Array>
          </mxGeometry>
        </mxCell>
        <mxCell id="0WDfXfLjRiSCRCVq6uFS-10" style="edgeStyle=orthogonalEdgeStyle;rounded=0;orthogonalLoop=1;jettySize=auto;html=1;entryX=0;entryY=0.808;entryDx=0;entryDy=0;entryPerimeter=0;endArrow=block;endFill=0;dashed=1;" edge="1" parent="WIyWlLk6GJQsqaUBKTNV-1" source="sgGLrwnaThKiIDgjscxB-47" target="sNgtJWW5c5NjqKj0yKrV-90">
          <mxGeometry relative="1" as="geometry" />
        </mxCell>
        <mxCell id="0WDfXfLjRiSCRCVq6uFS-14" value="&lt;i&gt;Executable&lt;/i&gt;" style="swimlane;fontStyle=1;align=center;verticalAlign=top;childLayout=stackLayout;horizontal=1;startSize=26;horizontalStack=0;resizeParent=1;resizeParentMax=0;resizeLast=0;collapsible=1;marginBottom=0;whiteSpace=wrap;html=1;" vertex="1" parent="WIyWlLk6GJQsqaUBKTNV-1">
          <mxGeometry x="1700" y="760" width="160" height="34" as="geometry" />
        </mxCell>
        <mxCell id="0WDfXfLjRiSCRCVq6uFS-18" style="edgeStyle=orthogonalEdgeStyle;rounded=0;orthogonalLoop=1;jettySize=auto;html=1;entryX=0.997;entryY=0.192;entryDx=0;entryDy=0;entryPerimeter=0;endArrow=block;endFill=0;dashed=1;" edge="1" parent="WIyWlLk6GJQsqaUBKTNV-1" source="0WDfXfLjRiSCRCVq6uFS-14" target="sgGLrwnaThKiIDgjscxB-10">
          <mxGeometry relative="1" as="geometry" />
        </mxCell>
      </root>
    </mxGraphModel>
  </diagram>
</mxfile>
